<?xml version="1.0" standalone="no"?><!DOCTYPE svg PUBLIC "-//W3C//DTD SVG 1.1//EN" "http://www.w3.org/Graphics/SVG/1.1/DTD/svg11.dtd"><svg t="1630465501792" class="icon" viewBox="0 0 1024 1024" version="1.1" xmlns="http://www.w3.org/2000/svg" p-id="4537" width="16" height="16" xmlns:xlink="http://www.w3.org/1999/xlink"><defs><style type="text/css"></style></defs><path d="M893.456828 709.055005" p-id="4538" fill="#2c2c2c"></path><path d="M491.889987 337.939709" p-id="4539" fill="#2c2c2c"></path><path d="M568.154951 338.993714" p-id="4540" fill="#2c2c2c"></path><path d="M973.749526 574.340837c-0.425695-242.50515-198.176548-439.664531-443.663612-439.664531-245.74903 0-448.64609 197.576891-448.64609 440.438151 0 3.202948-0.906649 6.203282-0.906649 8.92016L80.533175 808.913317c0 30.477129 35.526121 46.862307 72.126714 46.862307l57.030901 0c33.196053 0 59.130725-13.405311 59.130725-46.862307L268.821515 587.894528c0-31.408337-24.419156-67.76436-59.130725-67.76436l-67.517743 0c-3.701299 0-7.353478 3.789303-10.915607 4.603855 23.671119-197.62294 194.340173-349.778338 400.824945-349.778338 207.29523 0 378.521986 152.522766 401.124773 351.264179-6.716982-2.273786-13.764492-6.089695-20.913309-6.089695l-67.517743 0c-28.111245 0-61.231573 31.614022-61.231573 59.007929l0 229.773174c0 30.477129 35.117822 46.862307 71.718415 46.862307l57.030901 0c33.196053 0 59.539025-13.405311 59.539025-46.862307L971.832873 587.894528C971.832873 583.307046 975.054241 578.769706 973.749526 574.340837zM142.173047 562.085722l67.517743 0c13.216 0 17.175171 19.827581 17.175171 25.808806l0 221.017766c0 3.942799-2.397606 4.906753-17.175171 4.906753l-57.030901 0c-11.649318 0-30.17116 1.11438-30.17116-4.906753l0-229.762941C122.488729 575.963801 136.561235 562.085722 142.173047 562.085722zM929.877319 808.912293c0 3.942799-2.805906 4.906753-17.58347 4.906753l-57.030901 0c-11.649318 0-29.762861 1.11438-29.762861-4.906753l0-229.762941c0-3.184529 13.664208-17.062608 19.276019-17.062608l67.517743 0c13.216 0 17.58347 19.827581 17.58347 25.808806L929.877319 808.912293 929.877319 808.912293z" p-id="4541" fill="#2c2c2c"></path></svg>