<?xml version="1.0" standalone="no"?><!DOCTYPE svg PUBLIC "-//W3C//DTD SVG 1.1//EN" "http://www.w3.org/Graphics/SVG/1.1/DTD/svg11.dtd"><svg t="1630291401998" class="icon" viewBox="0 0 1024 1024" version="1.1" xmlns="http://www.w3.org/2000/svg" p-id="2178" width="32" height="32" xmlns:xlink="http://www.w3.org/1999/xlink"><defs><style type="text/css"></style></defs><path d="M963.81 874.915L746.64 653.057a38.174 38.174 0 0 0-12.11-8.353c46.656-62.601 74.36-140.751 74.36-225.526 0-205.789-163.237-372.568-364.61-372.568-201.37 0-364.602 166.78-364.602 372.568 0 205.793 163.231 372.57 364.603 372.57 92.422 0 176.808-35.135 241.07-93.045a39.044 39.044 0 0 0 7.027 9.872l217.115 221.857c14.97 15.3 39.293 15.3 54.317 0 14.97-15.3 14.97-40.218 0-55.517zM444.28 732.95c-169.564 0-307.061-140.493-307.061-313.772 0-173.333 137.496-313.766 307.061-313.766 169.571 0 307.062 140.433 307.062 313.766 0 173.28-137.492 313.772-307.062 313.772z" p-id="2179"></path></svg>